HIERARCHY
ROOT root
{
	OFFSET 0.000000 0.000000 0.000000
	CHANNELS 6 Xposition Yposition Zposition Zrotation Yrotation Xrotation
	JOINT lhip
	{
		OFFSET 0.058581 -0.082280 -0.017664
		CHANNELS 3 Zrotation Yrotation Xrotation
		JOINT lknee
		{
			OFFSET 0.043451 -0.386469 0.008037
			CHANNELS 3 Zrotation Yrotation Xrotation
			JOINT lankle
			{
				OFFSET -0.014790 -0.426874 -0.037428
				CHANNELS 3 Zrotation Yrotation Xrotation
				JOINT ltoe
				{
					OFFSET 0.041054 -0.060286 0.122042
					CHANNELS 3 Zrotation Yrotation Xrotation
					End Site
					{
						OFFSET 0.000000 0.000000 0.000000
					}
				}
			}
		}
	}
	JOINT rhip
	{
		OFFSET -0.060310 -0.090513 -0.013543
		CHANNELS 3 Zrotation Yrotation Xrotation
		JOINT rknee
		{
			OFFSET -0.043257 -0.383688 -0.004843
			CHANNELS 3 Zrotation Yrotation Xrotation
			JOINT rankle
			{
				OFFSET 0.019056 -0.420046 -0.034562
				CHANNELS 3 Zrotation Yrotation Xrotation
				JOINT rtoe
				{
					OFFSET -0.034840 -0.062106 0.130323
					CHANNELS 3 Zrotation Yrotation Xrotation
					End Site
					{
						OFFSET 0.000000 0.000000 0.000000
					}
				}
			}
		}
	}
	JOINT lowerback
	{
		OFFSET 0.004439 0.124404 -0.038385
		CHANNELS 3 Zrotation Yrotation Xrotation
		JOINT upperback
		{
			OFFSET 0.004488 0.137956 0.026820
			CHANNELS 3 Zrotation Yrotation Xrotation
			JOINT chest
			{
				OFFSET -0.002265 0.056032 0.002855
				CHANNELS 3 Zrotation Yrotation Xrotation
				JOINT lowerneck
				{
					OFFSET -0.013390 0.211636 -0.033468
					CHANNELS 3 Zrotation Yrotation Xrotation
					JOINT upperneck
					{
						OFFSET 0.010113 0.088937 0.050410
						CHANNELS 3 Zrotation Yrotation Xrotation
						End Site
						{
							OFFSET 0.000000 0.000000 0.000000
						}
					}
				}
				JOINT lclavicle
				{
					OFFSET 0.071702 0.114000 -0.018898
					CHANNELS 3 Zrotation Yrotation Xrotation
					JOINT lshoulder
					{
						OFFSET 0.122921 0.045205 -0.019046
						CHANNELS 3 Zrotation Yrotation Xrotation
						JOINT lelbow
						{
							OFFSET 0.255332 -0.015649 -0.022946
							CHANNELS 3 Zrotation Yrotation Xrotation
							JOINT lwrist
							{
								OFFSET 0.265709 0.012698 -0.007375
								CHANNELS 3 Zrotation Yrotation Xrotation
								End Site
								{
									OFFSET 0.000000 0.000000 0.000000
								}
							}
						}
					}
				}
				JOINT rclavicle
				{
					OFFSET -0.082954 0.112472 -0.023707
					CHANNELS 3 Zrotation Yrotation Xrotation
					JOINT rshoulder
					{
						OFFSET -0.113228 0.046853 -0.008472
						CHANNELS 3 Zrotation Yrotation Xrotation
						JOINT relbow
						{
							OFFSET -0.260127 -0.014369 -0.031269
							CHANNELS 3 Zrotation Yrotation Xrotation
							JOINT rwrist
							{
								OFFSET -0.269108 0.006794 -0.006027
								CHANNELS 3 Zrotation Yrotation Xrotation
								End Site
								{
									OFFSET 0.000000 0.000000 0.000000
								}
							}
						}
					}
				}
			}
		}
	}
}
MOTION
Frames: 5
Frame Time: 0.033333
-0.010072 0.012623 0.986018 -163.299693 -0.759213 89.137957 5.101183 3.924633 3.128326 -1.176637 -5.964815 -4.334882 -2.083945 6.339346 -7.057645 0.000000 -0.000000 0.000000 -8.006157 -10.960491 6.414475 0.329392 -15.804382 -2.568537 2.821782 -9.995986 -6.200239 0.000000 -0.000000 0.000000 -2.477597 4.826150 -1.641778 0.221356 0.655778 11.507393 1.129251 0.163352 -6.562383 -1.670329 24.172872 9.830802 -4.476407 25.670060 -5.424787 -31.471132 1.041440 1.215136 -54.107602 -3.082675 10.758670 11.403627 -21.650901 -12.225338 2.109035 -11.608467 -8.695965 28.113325 6.357232 6.541808 50.476678 6.483032 8.657234 -7.576666 14.022401 -21.930857 1.918396 12.948040 -14.945593 
-0.010537 0.012455 0.985859 -163.240284 -0.668389 89.199633 5.153803 3.767303 3.019627 -1.170840 -5.936593 -4.234671 -2.036095 6.318849 -7.053827 0.000000 -0.000000 0.000000 -7.937563 -10.999261 6.409631 0.388149 -15.800145 -2.601987 2.893205 -10.046798 -6.161992 0.000000 -0.000000 0.000000 -2.285808 4.640675 -1.571698 0.084195 0.535350 11.281696 1.077893 0.061145 -6.427494 -1.629292 24.099880 9.571975 -4.322478 25.617040 -4.869921 -31.406939 0.943796 1.295310 -54.231083 -3.201628 10.679900 11.398322 -21.660452 -12.036179 2.153765 -11.641742 -8.923720 28.057972 6.350200 6.681648 50.571402 6.500434 8.684280 -7.610855 13.864501 -21.755690 1.894333 12.896754 -14.941875 
-0.010536 0.012923 0.986054 -163.306490 -0.643224 89.205022 5.150272 3.789081 3.041957 -1.162917 -5.927359 -4.228580 -2.039972 6.322239 -7.048570 0.000000 -0.000000 0.000000 -7.931370 -10.988333 6.392422 0.395545 -15.797601 -2.599930 2.893193 -10.046857 -6.158064 0.000000 -0.000000 0.000000 -2.333583 4.569152 -1.639442 0.058670 0.450602 11.240909 1.072437 -0.027989 -6.447031 -1.629029 24.076654 9.544774 -4.311238 25.593518 -4.848576 -31.440251 0.862444 1.264250 -54.280841 -3.286867 10.694455 11.384591 -21.692946 -12.022177 2.146534 -11.656181 -8.926463 28.056512 6.312428 6.725780 50.583038 6.464511 8.690331 -7.597656 13.822993 -21.729629 1.893156 12.880614 -14.936538 
-0.008972 0.015823 0.982817 -165.534235 -0.516165 90.570380 5.500287 4.230560 2.696463 -1.427602 -4.551856 -5.063371 -2.105674 6.528318 -6.590006 0.000000 -0.000000 0.000000 -7.576367 -9.815296 4.890044 0.467169 -15.070200 -2.808166 4.233403 -9.729077 -5.971156 0.000000 -0.000000 0.000000 -2.086812 3.878262 -4.878623 -0.750575 1.486492 9.978402 0.750247 0.611120 -3.091462 0.105013 22.640139 5.397678 -0.496549 20.062734 1.912455 -28.472611 0.347660 2.769039 -57.776448 -5.522604 9.053641 11.746435 -20.645011 -9.548283 1.570133 -13.108584 -9.663742 27.325602 7.096197 7.300832 52.833171 8.445079 8.456441 -8.064535 12.177985 -18.606941 2.320989 12.173996 -15.257483 
-0.008821 0.016180 0.982696 -165.889912 -0.473962 90.576284 5.586813 4.322603 2.803125 -1.490863 -4.388617 -5.080730 -2.037450 6.491411 -6.630352 0.000000 -0.000000 0.000000 -7.562313 -9.916678 4.769729 0.447285 -14.801872 -2.669226 4.300265 -9.582157 -6.008877 0.000000 -0.000000 0.000000 -2.047357 3.834555 -4.851020 -0.742255 1.503586 9.670476 0.713793 0.614184 -2.929078 0.082658 21.431573 5.040012 -0.322701 18.739172 2.479922 -28.420653 0.439684 2.882776 -58.035771 -5.718239 9.171497 11.814834 -20.622590 -9.281313 1.610643 -12.891517 -9.669533 27.188747 7.078568 7.185354 53.131788 8.559999 8.564865 -8.157922 12.046805 -18.392042 2.618213 11.910616 -15.637063 
